<svg id="Layer_1" data-name="Layer 1" xmlns="http://www.w3.org/2000/svg" xmlns:xlink="http://www.w3.org/1999/xlink" viewBox="0 0 311.85 352"><defs><style>.cls-1{fill:url(#linear-gradient);}</style><linearGradient id="linear-gradient" x1="275.85" y1="439.15" x2="209.36" y2="62.04" gradientUnits="userSpaceOnUse"><stop offset="0" stop-color="#090909"/><stop offset="0.03" stop-color="#12132e"/><stop offset="0.08" stop-color="#1c1f57"/><stop offset="0.13" stop-color="#25297d"/><stop offset="0.18" stop-color="#2c329d"/><stop offset="0.24" stop-color="#333ab9"/><stop offset="0.31" stop-color="#3840cf"/><stop offset="0.39" stop-color="#3c44e0"/><stop offset="0.48" stop-color="#3f48eb"/><stop offset="0.62" stop-color="#4149f2"/><stop offset="1" stop-color="#414af4"/></linearGradient></defs><title>riddle</title><path class="cls-1" d="M93,363.37V134.46C93,95.05,113,74,148.61,74H256c96.63,0,144.68,40,144.68,115,0,46.43-22.13,81.52-64.78,97.72L324.6,290l79.9,98.79c3.24,4.32-15.66,37.25-62.08,37.25-33.48,0-50.21-14.58-72.35-45.89L216.63,311H202v64.79c0,32.39-16.27,50.21-47.72,50.21H139.09C109.27,426,93,402.78,93,363.37ZM244.24,238c32.37,0,48.55-15.11,48.55-41,0-27-15.65-41-49.09-41H200v82Z" transform="translate(-93 -74)"/></svg>