<?xml version="1.0" standalone="no"?>
<!DOCTYPE svg PUBLIC "-//W3C//DTD SVG 20010904//EN"
 "http://www.w3.org/TR/2001/REC-SVG-20010904/DTD/svg10.dtd">
<svg version="1.0" xmlns="http://www.w3.org/2000/svg"
 width="704.000000pt" height="704.000000pt" viewBox="0 0 704.000000 704.000000"
 preserveAspectRatio="xMidYMid meet">
<metadata>
Created by potrace 1.11, written by Peter Selinger 2001-2013
</metadata>
<g transform="translate(0.000000,704.000000) scale(0.100000,-0.100000)"
fill="#000000" stroke="none">
<path d="M1369 7036 c-2 -3 -33 -8 -69 -11 -35 -3 -67 -8 -70 -10 -4 -2 -22
-7 -41 -10 -19 -4 -38 -8 -44 -9 -5 -1 -14 -4 -20 -7 -5 -4 -23 -9 -40 -13
-73 -18 -237 -102 -293 -151 -82 -71 -172 -168 -172 -185 0 -6 -4 -10 -10 -10
-5 0 -10 -7 -10 -15 0 -8 -4 -15 -10 -15 -5 0 -10 -5 -10 -10 0 -6 -10 -27
-23 -48 -36 -58 -126 -302 -119 -325 1 -4 -3 -28 -9 -55 -5 -26 -13 -74 -17
-107 -10 -83 -9 -4997 1 -5065 51 -361 130 -562 290 -735 82 -90 247 -196 322
-208 11 -1 26 -6 32 -10 42 -26 179 -36 458 -33 160 2 304 6 320 10 17 3 41 9
55 12 14 3 36 8 50 11 45 9 51 11 146 49 122 50 263 164 328 268 71 114 123
247 141 361 2 17 7 41 9 55 13 65 15 204 16 842 0 644 2 687 18 687 9 0 70 0
134 1 65 1 125 -1 135 -5 16 -5 150 -176 511 -648 51 -67 96 -124 100 -127 4
-3 12 -12 17 -21 11 -19 136 -181 144 -189 4 -3 26 -32 50 -65 25 -33 47 -62
51 -65 3 -3 19 -23 36 -45 16 -22 35 -46 42 -53 6 -7 12 -16 12 -20 0 -4 13
-20 28 -37 15 -16 79 -100 141 -185 63 -85 128 -171 145 -191 17 -19 49 -57
71 -85 71 -87 250 -259 317 -304 21 -14 38 -28 38 -32 0 -5 6 -8 14 -8 8 0 21
-6 28 -12 13 -13 28 -22 92 -57 39 -22 178 -80 203 -84 10 -2 25 -7 33 -10 8
-4 26 -8 40 -11 14 -2 32 -7 40 -10 15 -5 44 -10 135 -23 69 -10 387 -10 460
0 33 5 74 10 91 12 36 4 120 27 214 58 36 12 67 22 70 22 18 2 210 100 236
120 18 14 37 25 43 25 6 0 11 5 11 10 0 6 5 10 11 10 11 0 61 40 140 112 36
33 139 157 139 167 0 5 6 16 13 23 19 19 57 113 57 140 0 20 -26 56 -133 188
-16 20 -218 271 -234 290 -6 8 -36 44 -65 80 -30 36 -112 137 -183 225 -112
140 -257 318 -307 380 -22 27 -256 316 -271 335 -7 8 -50 62 -97 119 -47 57
-89 111 -95 120 -5 9 -13 18 -16 21 -8 6 -62 72 -104 126 -16 21 -38 46 -47
56 -9 9 -24 28 -33 42 -14 21 -15 27 -4 30 8 2 39 12 69 21 30 10 60 18 65 20
43 9 81 23 150 52 82 35 241 112 260 126 31 23 87 57 94 57 4 0 16 9 26 20 10
11 22 20 27 20 5 0 14 5 21 10 7 6 39 31 72 58 144 114 276 257 372 400 32 48
60 89 63 92 10 9 108 213 130 270 28 70 71 199 75 225 2 11 12 58 24 105 17
75 23 107 37 210 30 225 22 573 -17 810 -6 36 -13 74 -14 85 -18 124 -109 395
-178 530 -17 33 -31 63 -32 66 -1 15 -126 201 -179 268 -65 81 -176 194 -245
251 -24 19 -57 47 -75 61 -45 38 -202 140 -261 169 -28 14 -52 27 -55 30 -8 8
-187 91 -202 94 -7 1 -23 8 -36 15 -13 7 -31 14 -40 16 -9 2 -42 12 -72 24
-55 20 -218 68 -259 76 -13 2 -31 7 -41 10 -10 3 -27 8 -37 10 -10 2 -52 11
-93 20 -41 9 -93 18 -115 21 -22 3 -47 7 -55 9 -8 3 -31 7 -50 9 -19 3 -57 8
-85 12 -27 3 -66 8 -85 10 -47 4 -144 14 -205 20 -61 7 -2729 16 -2736 10z
m1304 -1639 c3 3 54 4 114 3 59 0 115 -1 123 -1 122 2 244 1 248 -4 3 -2 11 0
18 6 7 6 14 6 18 1 3 -6 20 -7 39 -3 18 5 41 5 52 1 11 -4 24 -5 29 -2 11 6
95 4 120 -4 13 -4 16 -3 11 6 -5 8 -4 11 2 7 5 -3 48 -9 94 -12 135 -9 154
-12 281 -40 48 -10 175 -59 218 -83 152 -86 242 -195 310 -369 11 -29 18 -53
15 -53 -2 0 0 -12 5 -26 29 -75 32 -326 6 -452 -78 -377 -369 -583 -861 -608
-127 -7 -213 -7 -224 0 -5 4 -12 2 -16 -3 -3 -6 -15 -7 -28 -2 -12 4 -35 4
-52 1 -16 -3 -40 -3 -52 1 -13 5 -25 4 -28 -2 -4 -5 -11 -6 -17 -3 -6 4 -30 6
-54 5 -125 -3 -142 -3 -153 3 -6 4 -11 2 -11 -4 0 -6 -5 -8 -11 -5 -10 7 -29
7 -161 4 -25 -1 -51 2 -57 5 -5 4 -12 2 -16 -4 -4 -6 -11 -7 -17 -4 -6 4 -26
7 -44 6 l-33 -1 1 57 c0 31 0 62 -2 67 -1 6 -2 12 -1 15 3 7 3 202 1 215 -2 6
-1 15 0 20 2 12 2 206 0 220 -1 6 -1 15 0 20 2 12 2 206 0 220 -1 6 -1 15 0
20 2 12 2 206 0 220 -1 6 -1 15 0 20 2 12 2 206 0 220 -1 6 -1 15 0 20 5 23 3
213 -3 221 -3 6 -2 16 2 23 4 7 6 23 4 35 -4 20 0 23 33 24 20 1 39 4 41 6 3
3 15 1 28 -4 13 -5 25 -6 28 -3z"/>
</g>
</svg>
